<?xml version="1.0" encoding="UTF-8" standalone="no"?>
<svg
   xmlns:dc="http://purl.org/dc/elements/1.1/"
   xmlns:cc="http://creativecommons.org/ns#"
   xmlns:rdf="http://www.w3.org/1999/02/22-rdf-syntax-ns#"
   xmlns:svg="http://www.w3.org/2000/svg"
   xmlns="http://www.w3.org/2000/svg"
   id="svg8"
   version="1.1"
   viewBox="0 0 50 200"
   height="200mm"
   width="50mm">
  <defs
     id="defs2" />
  <metadata
     id="metadata5">
    <rdf:RDF>
      <cc:Work
         rdf:about="">
        <dc:format>image/svg+xml</dc:format>
        <dc:type
           rdf:resource="http://purl.org/dc/dcmitype/StillImage" />
        <dc:title></dc:title>
      </cc:Work>
    </rdf:RDF>
  </metadata>
  <g
     transform="translate(0,-97)"
     id="layer1">
    <g
       id="text29"
       style="font-style:normal;font-variant:normal;font-weight:normal;font-stretch:normal;font-size:14.11111069px;line-height:1.25;font-family:TESLA;-inkscape-font-specification:TESLA;letter-spacing:0px;word-spacing:0px;fill:#000000;fill-opacity:1;stroke:none;stroke-width:0.26458332"
       aria-label="S.H" />
    <circle
       id="circle37"
       cx="46"
       cy="293"
       r="2"
       style="stroke-width:0.07055556" />
    <circle
       style="stroke-width:0.07055556"
       r="2"
       cy="293"
       cx="4"
       id="circle39" />
    <circle
       style="stroke-width:0.07055556"
       r="2"
       cy="101"
       cx="46"
       id="circle41" />
    <circle
       id="circle43"
       cx="4"
       cy="101"
       r="2"
       style="stroke-width:0.07055556" />
    <circle
       id="circle45"
       cx="46"
       cy="121"
       r="2"
       style="stroke-width:0.07055556" />
    <circle
       style="stroke-width:0.07055556"
       r="2"
       cy="121"
       cx="5"
       id="circle47" />
    <circle
       id="circle82"
       cx="12"
       cy="135"
       r="5.5"
       style="stroke-width:0.1940278" />
    <circle
       id="circle84"
       cx="12"
       cy="155"
       r="5.5"
       style="stroke-width:0.1940278" />
    <circle
       style="stroke-width:0.09172223"
       r="2.5999999"
       cy="160"
       cx="25"
       id="circle92" />
    <circle
       style="stroke-width:0.09172223"
       r="2.5999999"
       cy="180"
       cx="25"
       id="circle96" />
    <circle
       id="circle98"
       cx="25"
       cy="220"
       r="2.5999999"
       style="stroke-width:0.09172223" />
    <circle
       id="circle102"
       cx="25"
       cy="240"
       r="2.5999999"
       style="stroke-width:0.09172223" />
    <circle
       style="stroke-width:0.09172223"
       r="2.5999999"
       cy="260"
       cx="25"
       id="circle104" />
    <circle
       id="circle106"
       cx="25"
       cy="280"
       r="2.5999999"
       style="stroke-width:0.09172223" />
    <circle
       style="stroke-width:0.1940278"
       r="5.5"
       cy="185"
       cx="38"
       id="circle108" />
    <circle
       id="circle110"
       cx="38"
       cy="135"
       r="5.5"
       style="stroke-width:0.1940278" />
    <circle
       id="circle112"
       cx="38"
       cy="245"
       r="5.5"
       style="stroke-width:0.1940278" />
    <circle
       style="stroke-width:0.09172223"
       r="2.5999999"
       cy="143"
       cx="25"
       id="circle114" />
    <circle
       style="stroke-width:0.21166666"
       r="4"
       cy="119"
       cx="25"
       id="path120" />
    <circle
       style="stroke-width:0.1940278"
       r="5.5"
       cy="175"
       cx="12"
       id="circle154" />
    <circle
       style="stroke-width:0.1940278"
       r="5.5"
       cy="195"
       cx="12"
       id="circle156" />
    <circle
       id="circle158"
       cx="12"
       cy="215"
       r="5.5"
       style="stroke-width:0.1940278" />
    <circle
       id="circle160"
       cx="12"
       cy="235"
       r="5.5"
       style="stroke-width:0.1940278" />
    <circle
       style="stroke-width:0.1940278"
       r="5.5"
       cy="255"
       cx="12"
       id="circle162" />
    <circle
       style="stroke-width:0.1940278"
       r="5.5"
       cy="275"
       cx="12"
       id="circle164" />
    <circle
       id="circle170"
       cx="25"
       cy="200"
       r="2.5999999"
       style="stroke-width:0.09172223" />
    <circle
       style="stroke-width:0.07055556"
       r="2"
       cy="205"
       cx="46"
       id="circle184" />
    <circle
       id="circle186"
       cx="5"
       cy="205"
       r="2"
       style="stroke-width:0.07055556" />
    <g
       id="text194"
       style="font-style:normal;font-variant:normal;font-weight:normal;font-stretch:normal;font-size:14.11111069px;line-height:1.25;font-family:TESLA;-inkscape-font-specification:TESLA;letter-spacing:0px;word-spacing:0px;fill:#000000;fill-opacity:1;stroke:none;stroke-width:0.26458332"
       aria-label="R">
      <path
         id="path229"
         style="stroke-width:0.26458332"
         d="m 33.763393,164.18155 v -5.29167 h 7.9375 q 0.35829,0 0.620117,-0.24804 0.261828,-0.26183 0.261828,-0.6339 v -0.88195 h -7.055556 q -0.74414,0 -1.254014,-0.50987 -0.509875,-0.52365 -0.509875,-1.25402 h 10.583333 v 3.52778 q 0,0.74414 -0.523654,1.25402 -0.523655,0.50987 -1.240234,0.50987 h -1.763889 l 3.527777,3.52778 h -2.645833 l -3.527778,-3.52778 h -2.645833 v 3.52778 z" />
    </g>
    <g
       id="text198"
       style="font-style:normal;font-variant:normal;font-weight:normal;font-stretch:normal;font-size:14.11111069px;line-height:1.25;font-family:TESLA;-inkscape-font-specification:TESLA;letter-spacing:0px;word-spacing:0px;fill:#000000;fill-opacity:1;stroke:none;stroke-width:0.26458332"
       aria-label="C">
      <path
         id="path226"
         style="stroke-width:0.26458332"
         d="m 35.062995,219.9375 q -0.74414,0 -1.254014,-0.50987 -0.509874,-0.52366 -0.509874,-1.25402 v -3.52778 h 1.763888 v 2.64584 q 0,0.37207 0.248047,0.63389 0.261828,0.24805 0.633898,0.24805 h 7.9375 q 0,0.74414 -0.523655,1.25402 -0.523654,0.50987 -1.240234,0.50987 z m -1.763888,-7.05556 v -1.76388 H 43.88244 q 0,0.74414 -0.523655,1.25401 -0.523654,0.50987 -1.240234,0.50987 z" />
    </g>
    <g
       id="text202"
       style="font-style:normal;font-variant:normal;font-weight:normal;font-stretch:normal;font-size:14.11111069px;line-height:1.25;font-family:TESLA;-inkscape-font-specification:TESLA;letter-spacing:0px;word-spacing:0px;fill:#000000;fill-opacity:1;stroke:none;stroke-width:0.26458332"
       aria-label="D">
      <path
         id="path223"
         style="stroke-width:0.26458332"
         d="m 32.732143,270.40179 v -5.29166 h 1.763889 v 3.52778 h 6.173611 q 0.35829,0 0.620117,-0.24805 0.261828,-0.26183 0.261828,-0.6339 v -4.40972 h -7.055556 q -0.74414,0 -1.254014,-0.50988 -0.509875,-0.52365 -0.509875,-1.25401 h 10.583333 v 7.05556 q 0,0.74414 -0.523654,1.25401 -0.523655,0.50987 -1.240234,0.50987 z" />
    </g>
  </g>
</svg>
